<?xml version="1.0" encoding="UTF-8" standalone="no"?>
<svg
   xmlns:dc="http://purl.org/dc/elements/1.1/"
   xmlns:cc="http://creativecommons.org/ns#"
   xmlns:rdf="http://www.w3.org/1999/02/22-rdf-syntax-ns#"
   xmlns:svg="http://www.w3.org/2000/svg"
   xmlns="http://www.w3.org/2000/svg"
   xmlns:sodipodi="http://sodipodi.sourceforge.net/DTD/sodipodi-0.dtd"
   xmlns:inkscape="http://www.inkscape.org/namespaces/inkscape"
   version="1.1"
   id="Layer_1"
   x="0px"
   y="0px"
   width="328"
   height="374"
   viewBox="0 0 328 374"
   enable-background="new 0 0 841.891 595.275"
   xml:space="preserve"
   inkscape:version="0.48.2 r9819"
   sodipodi:docname="logo.svg"><metadata
   id="metadata21"><rdf:RDF><cc:Work
       rdf:about=""><dc:format>image/svg+xml</dc:format><dc:type
         rdf:resource="http://purl.org/dc/dcmitype/StillImage" /></cc:Work></rdf:RDF></metadata><defs
   id="defs19" /><sodipodi:namedview
   pagecolor="#ffffff"
   bordercolor="#666666"
   borderopacity="1"
   objecttolerance="10"
   gridtolerance="10"
   guidetolerance="10"
   inkscape:pageopacity="0"
   inkscape:pageshadow="2"
   inkscape:window-width="1083"
   inkscape:window-height="694"
   id="namedview17"
   showgrid="false"
   inkscape:zoom="0.87421012"
   inkscape:cx="185.38136"
   inkscape:cy="179.02542"
   inkscape:window-x="0"
   inkscape:window-y="0"
   inkscape:window-maximized="0"
   inkscape:current-layer="Layer_1" />
    <title
   id="title3">HTML5 Logo Badge</title>
    <g
   id="g5"
   transform="translate(1.1438898,2.60081)">
        <path
   d="M 29.672,332.906 0,0 h 326.391 l -29.672,332.906 -133.885,37.633"
   id="path7"
   inkscape:connector-curvature="0"
   style="fill:#d6ba32" />
        <path
   d="M 163.558,344.076 271.389,314.403 296.719,29.262 H 163.558 v 314.814 z"
   id="path9"
   inkscape:connector-curvature="0"
   style="fill:#ffda3e" />
        <path
   d="M 292.096,85.146"
   id="path11"
   inkscape:connector-curvature="0"
   style="fill:#ffffff" />
        <polygon
   points="55.248,225.11 55.248,263.216 149.997,289.606 149.997,71.82 118.415,71.82 118.415,242.706 "
   id="polygon13"
   style="fill:#ebebeb" />
        <polygon
   points="264.512,266.439 272.795,160.414 207.971,168.404 207.971,109.926 276.936,109.926 280.25,71.82 176.389,71.82 176.389,213.309 241.211,201.71 239.555,234.647 176.389,251.413 176.389,289.518 "
   id="polygon15"
   style="fill:#ffffff" />
    </g>
</svg>