<?xml version="1.0" encoding="UTF-8" standalone="no"?>
<!-- Created with Inkscape (http://www.inkscape.org/) -->

<svg
   xmlns:dc="http://purl.org/dc/elements/1.1/"
   xmlns:cc="http://creativecommons.org/ns#"
   xmlns:rdf="http://www.w3.org/1999/02/22-rdf-syntax-ns#"
   xmlns:svg="http://www.w3.org/2000/svg"
   xmlns="http://www.w3.org/2000/svg"
   xmlns:sodipodi="http://sodipodi.sourceforge.net/DTD/sodipodi-0.dtd"
   xmlns:inkscape="http://www.inkscape.org/namespaces/inkscape"
   version="1.1"
   width="100"
   height="102"
   id="svg7592"
   inkscape:version="0.48.2 r9819"
   sodipodi:docname="Logo_TYPO3.svg">
  <sodipodi:namedview
     pagecolor="#ffffff"
     bordercolor="#666666"
     borderopacity="1"
     objecttolerance="10"
     gridtolerance="10"
     guidetolerance="10"
     inkscape:pageopacity="0"
     inkscape:pageshadow="2"
     inkscape:window-width="788"
     inkscape:window-height="615"
     id="namedview9"
     showgrid="false"
     inkscape:zoom="4.6427301"
     inkscape:cx="68.334078"
     inkscape:cy="69.490732"
     inkscape:window-x="386"
     inkscape:window-y="156"
     inkscape:window-maximized="0"
     inkscape:current-layer="svg7592" />
  <defs
     id="defs7594" />
  <metadata
     id="metadata7597">
    <rdf:RDF>
      <cc:Work
         rdf:about="">
        <dc:format>image/svg+xml</dc:format>
        <dc:type
           rdf:resource="http://purl.org/dc/dcmitype/StillImage" />
        <dc:title />
      </cc:Work>
    </rdf:RDF>
  </metadata>
  <g
     transform="translate(205.62564,-269.51662)"
     id="layer1">
    <path
       d="m -129.96886,340.07111 c -1.50125,0.4425 -2.6975,0.595 -4.2625,0.595 -12.84,0 -31.7,-44.87 -31.7,-59.80375 0,-5.50125 1.30625,-7.335 3.1425,-8.90625 -15.7175,1.8325 -34.58,7.5975 -40.6075,14.9325 -1.30875,1.835 -2.095,4.71625 -2.095,8.3825 0,23.3175 24.8875,76.23375 42.44125,76.23375 8.12,0 21.81625,-13.36 33.08125,-31.43375"
       id="path5775"
       style="fill:#ff8700;fill-opacity:1;fill-rule:nonzero;stroke:none"
       inkscape:connector-curvature="0" />
    <path
       d="m -138.16461,270.38299 c 16.2425,0 32.4875,2.62 32.4875,11.78875 0,18.60125 -11.78875,41.13125 -17.815,41.13125 -10.74,0 -24.10125,-29.86375 -24.10125,-44.7975 0,-6.81125 2.62,-8.1225 9.42875,-8.1225"
       id="path5779"
       style="fill:#ff8700;fill-opacity:1;fill-rule:nonzero;stroke:none"
       inkscape:connector-curvature="0" />
  </g>
</svg>
